<svg xmlns="http://www.w3.org/2000/svg" viewBox="0 0 218.69 218.69"><defs><style>.cls-1{fill:#fff;}</style></defs><g id="Capa_2" data-name="Capa 2"><g id="Capa_1-2" data-name="Capa 1"><circle cx="109.35" cy="109.35" r="109.21" transform="translate(-45.29 109.35) rotate(-45)"/><path d="M109.35.27a109.09,109.09,0,0,1,77.13,186.21A109.09,109.09,0,0,1,32.21,32.21,108.39,108.39,0,0,1,109.35.27m0-.27A109.35,109.35,0,1,0,218.69,109.35,109.35,109.35,0,0,0,109.35,0Z"/><path class="cls-1" d="M76.86,101.56v13.68H69.93V102.63c0-3.87-1.73-5.64-4.53-5.64-3.11,0-5.28,2-5.28,6.26v12H53.19V102.63c0-3.87-1.65-5.64-4.54-5.64-3.06,0-5.24,2-5.24,6.26v12H36.48V91.34H43.1V94.1A9.66,9.66,0,0,1,50.61,91a8.92,8.92,0,0,1,7.86,3.91A10.73,10.73,0,0,1,67.09,91C72.78,91,76.86,94.28,76.86,101.56Z"/><path class="cls-1" d="M81.57,103.29c0-7.19,5.55-12.3,13.15-12.3s13.1,5.11,13.1,12.3-5.5,12.31-13.1,12.31S81.57,110.49,81.57,103.29Zm19.24,0c0-4.13-2.63-6.62-6.09-6.62s-6.13,2.49-6.13,6.62,2.67,6.62,6.13,6.62S100.81,107.42,100.81,103.29Z"/><path class="cls-1" d="M181.77,102.62c0,7.2-5.56,12.3-13.16,12.3s-13.1-5.13-13.09-12.32S161,90.3,168.63,90.31,181.78,95.43,181.77,102.62Zm-19.23,0c0,4.14,2.61,6.63,6.08,6.63s6.13-2.48,6.13-6.61S172.09,96,168.63,96,162.54,98.47,162.54,102.6Z"/><path class="cls-1" d="M110.52,104.29V90.61h6.93v12.62c0,3.86,1.73,5.64,4.52,5.64,3.11,0,5.29-2,5.3-6.25v-12h6.93v12.61c0,3.87,1.63,5.65,4.52,5.65,3.07,0,5.24-2,5.25-6.26v-12h6.93l0,23.9h-6.62v-2.76a9.69,9.69,0,0,1-7.51,3.11A9,9,0,0,1,128.9,111a10.75,10.75,0,0,1-8.62,3.9C114.59,114.86,110.51,111.57,110.52,104.29Z"/><path class="cls-1" d="M42.23,126.36a.3.3,0,0,1,.22.1l.6.65a3.29,3.29,0,0,1-1.23,1,4.36,4.36,0,0,1-1.74.32,4.07,4.07,0,0,1-1.64-.31,3.54,3.54,0,0,1-1.25-.86,4,4,0,0,1-.79-1.33,5,5,0,0,1-.27-1.68,4.79,4.79,0,0,1,.29-1.69,4.06,4.06,0,0,1,.83-1.32,3.82,3.82,0,0,1,1.28-.87,4.32,4.32,0,0,1,1.64-.31,4,4,0,0,1,1.59.3,3.77,3.77,0,0,1,1.18.77l-.51.71a.68.68,0,0,1-.12.12.33.33,0,0,1-.19,0,.41.41,0,0,1-.18,0l-.19-.12-.25-.16-.33-.15a2.32,2.32,0,0,0-.44-.12,3.06,3.06,0,0,0-.56,0,2.53,2.53,0,0,0-1,.2,2.29,2.29,0,0,0-.78.56,2.6,2.6,0,0,0-.51.91,3.82,3.82,0,0,0-.18,1.22,3.61,3.61,0,0,0,.19,1.23,2.65,2.65,0,0,0,.53.9,2.22,2.22,0,0,0,.79.57,2.4,2.4,0,0,0,1,.19,4.61,4.61,0,0,0,.56,0,2.16,2.16,0,0,0,.47-.11,2.09,2.09,0,0,0,.4-.19,3.08,3.08,0,0,0,.38-.28.47.47,0,0,1,.12-.09A.28.28,0,0,1,42.23,126.36Z"/><path class="cls-1" d="M51.73,124.2a4.55,4.55,0,0,1-.3,1.67,4.07,4.07,0,0,1-.84,1.33,3.85,3.85,0,0,1-1.31.87,4.79,4.79,0,0,1-3.39,0,3.85,3.85,0,0,1-1.31-.87,4.09,4.09,0,0,1-.85-1.33,4.8,4.8,0,0,1,0-3.34,4.09,4.09,0,0,1,.85-1.33,3.85,3.85,0,0,1,1.31-.87,4.42,4.42,0,0,1,1.69-.32,4.49,4.49,0,0,1,1.18.15,4,4,0,0,1,1,.41,3.47,3.47,0,0,1,.83.64,4,4,0,0,1,.62.84,4.08,4.08,0,0,1,.39,1A4.69,4.69,0,0,1,51.73,124.2Zm-1.56,0A3.8,3.8,0,0,0,50,123a2.6,2.6,0,0,0-.51-.91,2.25,2.25,0,0,0-.82-.57,2.85,2.85,0,0,0-1.08-.2,2.76,2.76,0,0,0-1.07.2,2.17,2.17,0,0,0-.82.57,2.61,2.61,0,0,0-.52.91,4.16,4.16,0,0,0,0,2.42,2.48,2.48,0,0,0,.52.9,2.17,2.17,0,0,0,.82.57,2.59,2.59,0,0,0,1.07.2,2.67,2.67,0,0,0,1.08-.2,2.25,2.25,0,0,0,.82-.57,2.46,2.46,0,0,0,.51-.9A3.8,3.8,0,0,0,50.17,124.2Z"/><path class="cls-1" d="M60,120.1v8.19h-.79a.67.67,0,0,1-.3-.06.6.6,0,0,1-.23-.2l-4.28-5.46c0,.25,0,.48,0,.7v5H53.07V120.1h1a.42.42,0,0,1,.12,0,.34.34,0,0,1,.11.07l.11.13,4.29,5.48,0-.39c0-.13,0-.25,0-.36v-5Z"/><path class="cls-1" d="M67.52,121.36H65.05v6.93H63.53v-6.93H61.06V120.1h6.46Z"/><path class="cls-1" d="M70.12,121.32v2.27H73v1.17H70.12v2.32h3.64v1.21H68.59V120.1h5.17v1.22Z"/><path class="cls-1" d="M82,120.1v8.19h-.78a.67.67,0,0,1-.3-.06.63.63,0,0,1-.24-.2l-4.28-5.46a5.8,5.8,0,0,1,0,.7v5H75.11V120.1h1l.13,0a.3.3,0,0,1,.1.07.75.75,0,0,1,.11.13l4.3,5.48,0-.39c0-.13,0-.25,0-.36v-5Z"/><path class="cls-1" d="M85.36,128.29H83.83V120.1h1.53Z"/><path class="cls-1" d="M94.46,124.2a4.4,4.4,0,0,1-.3,1.65,3.74,3.74,0,0,1-.84,1.3A3.78,3.78,0,0,1,92,128a4.63,4.63,0,0,1-1.7.3H87.19V120.1h3.12a4.63,4.63,0,0,1,1.7.31,3.78,3.78,0,0,1,1.31.84,3.74,3.74,0,0,1,.84,1.3A4.4,4.4,0,0,1,94.46,124.2Zm-1.56,0a3.8,3.8,0,0,0-.18-1.21,2.6,2.6,0,0,0-.51-.91,2.35,2.35,0,0,0-.82-.56,2.67,2.67,0,0,0-1.08-.2H88.72v5.76h1.59a2.67,2.67,0,0,0,1.08-.2,2.25,2.25,0,0,0,.82-.57,2.46,2.46,0,0,0,.51-.9A3.8,3.8,0,0,0,92.9,124.2Z"/><path class="cls-1" d="M103.61,124.2a4.55,4.55,0,0,1-.29,1.67,4.07,4.07,0,0,1-.84,1.33,4,4,0,0,1-1.31.87,4.44,4.44,0,0,1-1.7.31,4.39,4.39,0,0,1-1.69-.31,4,4,0,0,1-1.32-.87,4.07,4.07,0,0,1-.84-1.33,4.8,4.8,0,0,1,0-3.34,4.07,4.07,0,0,1,.84-1.33,4,4,0,0,1,1.32-.87,4.39,4.39,0,0,1,1.69-.32,4.47,4.47,0,0,1,1.17.15,4.11,4.11,0,0,1,1,.41,3.42,3.42,0,0,1,.82.64,3.65,3.65,0,0,1,.62.84,4.08,4.08,0,0,1,.39,1A4.69,4.69,0,0,1,103.61,124.2Zm-1.55,0a3.8,3.8,0,0,0-.18-1.21,2.61,2.61,0,0,0-.52-.91,2.13,2.13,0,0,0-.81-.57,3,3,0,0,0-2.16,0,2.25,2.25,0,0,0-.82.57,2.6,2.6,0,0,0-.51.91,4.16,4.16,0,0,0,0,2.42,2.46,2.46,0,0,0,.51.9,2.25,2.25,0,0,0,.82.57,3,3,0,0,0,2.16,0,2.13,2.13,0,0,0,.81-.57,2.48,2.48,0,0,0,.52-.9A3.8,3.8,0,0,0,102.06,124.2Z"/><path class="cls-1" d="M114.35,128.29h-1.18a.47.47,0,0,1-.32-.1.5.5,0,0,1-.19-.24l-.61-1.67h-3.4L108,128a.63.63,0,0,1-.17.24.52.52,0,0,1-.33.1h-1.18l3.22-8.19h1.55Zm-2.69-3.09-1-2.72c0-.12-.1-.27-.15-.43s-.11-.35-.16-.54c0,.19-.1.37-.16.54s-.1.31-.15.44l-1,2.71Z"/><path class="cls-1" d="M118.29,127.07a2,2,0,0,0,.79-.15,1.55,1.55,0,0,0,.58-.42,1.83,1.83,0,0,0,.37-.64,2.81,2.81,0,0,0,.13-.85V120.1h1.52V125a3.68,3.68,0,0,1-.24,1.35,3,3,0,0,1-1.74,1.77,4.13,4.13,0,0,1-2.83,0,3.06,3.06,0,0,1-1.07-.7,3.21,3.21,0,0,1-.68-1.07,3.9,3.9,0,0,1-.23-1.35V120.1h1.52V125a2.76,2.76,0,0,0,.13.85,1.87,1.87,0,0,0,.37.65,1.67,1.67,0,0,0,.59.42A2,2,0,0,0,118.29,127.07Z"/><path class="cls-1" d="M130.67,124.2a4.4,4.4,0,0,1-.3,1.65,3.74,3.74,0,0,1-.84,1.3,3.78,3.78,0,0,1-1.31.84,4.63,4.63,0,0,1-1.7.3H123.4V120.1h3.12a4.63,4.63,0,0,1,1.7.31,3.78,3.78,0,0,1,1.31.84,3.74,3.74,0,0,1,.84,1.3A4.4,4.4,0,0,1,130.67,124.2Zm-1.56,0a3.8,3.8,0,0,0-.18-1.21,2.6,2.6,0,0,0-.51-.91,2.35,2.35,0,0,0-.82-.56,2.67,2.67,0,0,0-1.08-.2h-1.59v5.76h1.59a2.67,2.67,0,0,0,1.08-.2,2.25,2.25,0,0,0,.82-.57,2.46,2.46,0,0,0,.51-.9A3.8,3.8,0,0,0,129.11,124.2Z"/><path class="cls-1" d="M133.54,128.29H132V120.1h1.53Z"/><path class="cls-1" d="M143.18,124.2a4.55,4.55,0,0,1-.3,1.67,3.76,3.76,0,0,1-.84,1.33,3.81,3.81,0,0,1-1.3.87,4.82,4.82,0,0,1-3.4,0,4,4,0,0,1-1.31-.87,4.07,4.07,0,0,1-.84-1.33,4.8,4.8,0,0,1,0-3.34,4.07,4.07,0,0,1,.84-1.33,4,4,0,0,1,1.31-.87,4.66,4.66,0,0,1,2.87-.17,4.11,4.11,0,0,1,1,.41,3.63,3.63,0,0,1,.82.64,4,4,0,0,1,.62.84,4.08,4.08,0,0,1,.39,1A4.69,4.69,0,0,1,143.18,124.2Zm-1.56,0a3.8,3.8,0,0,0-.18-1.21,2.6,2.6,0,0,0-.51-.91,2.21,2.21,0,0,0-.81-.57,3,3,0,0,0-2.16,0,2.25,2.25,0,0,0-.82.57,2.61,2.61,0,0,0-.52.91,4.16,4.16,0,0,0,0,2.42,2.48,2.48,0,0,0,.52.9,2.25,2.25,0,0,0,.82.57,3,3,0,0,0,2.16,0,2.21,2.21,0,0,0,.81-.57,2.46,2.46,0,0,0,.51-.9A3.8,3.8,0,0,0,141.62,124.2Z"/><path class="cls-1" d="M151.27,120.1l-3.3,8.19h-1.38l-3.31-8.19h1.23a.53.53,0,0,1,.32.1.67.67,0,0,1,.19.25l1.93,5c.06.16.12.34.18.53s.12.4.17.61a5.44,5.44,0,0,1,.15-.61,5.52,5.52,0,0,1,.17-.53l1.92-5a.51.51,0,0,1,.18-.24.52.52,0,0,1,.33-.11Z"/><path class="cls-1" d="M153.65,128.29h-1.53V120.1h1.53Z"/><path class="cls-1" d="M159.84,121.59a.54.54,0,0,1-.14.18.38.38,0,0,1-.19,0,.48.48,0,0,1-.26-.09l-.33-.19a3.18,3.18,0,0,0-.45-.2,1.87,1.87,0,0,0-.61-.09,1.77,1.77,0,0,0-.55.08,1.08,1.08,0,0,0-.4.21.78.78,0,0,0-.24.33,1,1,0,0,0-.08.42.71.71,0,0,0,.16.48,1.48,1.48,0,0,0,.43.33,3.4,3.4,0,0,0,.6.24l.7.23a5.24,5.24,0,0,1,.69.28,2.33,2.33,0,0,1,.61.41,1.77,1.77,0,0,1,.43.6,2.08,2.08,0,0,1,.16.87,2.78,2.78,0,0,1-.19,1,2.38,2.38,0,0,1-.56.84,2.62,2.62,0,0,1-.89.57,3.21,3.21,0,0,1-1.2.2,3.94,3.94,0,0,1-.77-.07,4.12,4.12,0,0,1-1.39-.56,3.34,3.34,0,0,1-.54-.44l.45-.73a.51.51,0,0,1,.15-.14.41.41,0,0,1,.19,0,.53.53,0,0,1,.3.12l.39.25a2.61,2.61,0,0,0,.53.26,2,2,0,0,0,.73.12,1.47,1.47,0,0,0,1-.31,1.11,1.11,0,0,0,.36-.89.79.79,0,0,0-.17-.52,1.23,1.23,0,0,0-.42-.35,3.1,3.1,0,0,0-.61-.23q-.35-.09-.69-.21t-.69-.27a2.37,2.37,0,0,1-.61-.42,1.88,1.88,0,0,1-.42-.63,2.41,2.41,0,0,1-.17-1,2.25,2.25,0,0,1,.7-1.62,2.56,2.56,0,0,1,.84-.53,3.09,3.09,0,0,1,1.14-.2,3.85,3.85,0,0,1,1.34.23,2.89,2.89,0,0,1,1,.64Z"/><path class="cls-1" d="M165,127.07a2,2,0,0,0,.79-.15,1.67,1.67,0,0,0,.59-.42,1.81,1.81,0,0,0,.36-.64,2.53,2.53,0,0,0,.13-.85V120.1h1.52V125a3.9,3.9,0,0,1-.23,1.35,3.06,3.06,0,0,1-.68,1.07,3.11,3.11,0,0,1-1.06.7,4.16,4.16,0,0,1-2.84,0,3,3,0,0,1-1.74-1.77,3.68,3.68,0,0,1-.24-1.35V120.1h1.53V125a2.77,2.77,0,0,0,.12.85,1.87,1.87,0,0,0,.37.65,1.67,1.67,0,0,0,.59.42A2,2,0,0,0,165,127.07Z"/><path class="cls-1" d="M176.92,128.29h-1.18a.47.47,0,0,1-.32-.1.5.5,0,0,1-.19-.24l-.61-1.67h-3.39l-.62,1.67a.63.63,0,0,1-.17.24.51.51,0,0,1-.32.1h-1.19l3.22-8.19h1.55Zm-2.69-3.09-1-2.72c0-.12-.1-.27-.15-.43s-.11-.35-.16-.54q-.07.28-.15.54l-.16.44-1,2.71Z"/><path class="cls-1" d="M182.56,127v1.25h-4.79V120.1h1.52V127Z"/></g></g></svg>