<svg xmlns="http://www.w3.org/2000/svg" viewBox="0 0 115.43 20.09"><defs><style>.cls-1{fill:#fff;}</style></defs><g id="Capa_2" data-name="Capa 2"><g id="Capa_1-2" data-name="Capa 1"><path class="cls-1" d="M32.08,8.94V19.81h-5.5v-10c0-3.07-1.38-4.48-3.6-4.48-2.47,0-4.2,1.58-4.2,5v9.53H13.27v-10c0-3.07-1.31-4.48-3.6-4.48s-4.16,1.58-4.16,5v9.53H0V.82H5.26V3a7.7,7.7,0,0,1,6-2.47,7.1,7.1,0,0,1,6.25,3.11A8.55,8.55,0,0,1,24.32.54C28.83.54,32.08,3.15,32.08,8.94Z"/><path class="cls-1" d="M35.82,10.32C35.82,4.6,40.23.54,46.27.54S56.68,4.6,56.68,10.32s-4.38,9.77-10.41,9.77S35.82,16,35.82,10.32Zm15.28,0C51.1,7,49,5.06,46.27,5.06S41.4,7,41.4,10.32s2.12,5.26,4.87,5.26S51.1,13.6,51.1,10.32Z"/><path class="cls-1" d="M115.43,9.79c0,5.71-4.42,9.77-10.45,9.76S94.57,15.48,94.57,9.77,99,0,105,0,115.44,4.07,115.43,9.79Zm-15.28,0c0,3.28,2.08,5.26,4.83,5.26s4.87-2,4.88-5.25S107.74,4.52,105,4.52,100.15,6.49,100.15,9.77Z"/><path class="cls-1" d="M58.82,11.11V.24h5.51v10c0,3.07,1.37,4.48,3.59,4.48,2.47,0,4.2-1.58,4.21-5V.25h5.5v10c0,3.07,1.3,4.48,3.6,4.49s4.16-1.59,4.17-5V.26h5.5l0,19H85.64V17.06a7.67,7.67,0,0,1-6,2.47,7.08,7.08,0,0,1-6.24-3.11,8.54,8.54,0,0,1-6.85,3.1C62.06,19.51,58.82,16.9,58.82,11.11Z"/></g></g></svg>