<svg xmlns="http://www.w3.org/2000/svg" viewBox="0 0 525.29 127.51"><defs><style>.cls-1{fill:none;stroke:#000;stroke-width:0.5px;}</style></defs><g id="Capa_2" data-name="Capa 2"><g id="Capa_1-2" data-name="Capa 1"><path class="cls-1" d="M16.57,42.1a37.46,37.46,0,0,1,10-8A26.74,26.74,0,0,1,39.66,31a23.49,23.49,0,0,1,10.71,2.44,24.11,24.11,0,0,1,8.37,7.08A34.16,34.16,0,0,1,64.18,52a57.91,57.91,0,0,1,1.91,15.59,49.1,49.1,0,0,1-2.16,14.86,36.45,36.45,0,0,1-6.17,11.85,28.54,28.54,0,0,1-9.7,7.85,28.24,28.24,0,0,1-12.73,2.82,25.69,25.69,0,0,1-10.25-1.84A24.86,24.86,0,0,1,17.48,98v29.29H.25V32.33H10.78a4.25,4.25,0,0,1,4.4,3.14Zm.91,43.24a16.92,16.92,0,0,0,6.38,5,19.11,19.11,0,0,0,7.5,1.46,16.54,16.54,0,0,0,7-1.46,13.84,13.84,0,0,0,5.34-4.47,22.14,22.14,0,0,0,3.38-7.57,43.16,43.16,0,0,0,1.19-10.77,48.12,48.12,0,0,0-1-10.64,20.68,20.68,0,0,0-2.9-7.08,11.36,11.36,0,0,0-4.57-4,14.18,14.18,0,0,0-6.1-1.26,17.43,17.43,0,0,0-9.14,2.27,27.74,27.74,0,0,0-7.11,6.38Z"/><path class="cls-1" d="M111.15,31.22a39,39,0,0,1,14.47,2.58,31.68,31.68,0,0,1,11.16,7.32,32.14,32.14,0,0,1,7.15,11.58A43.93,43.93,0,0,1,146.45,68a44.07,44.07,0,0,1-2.52,15.34A32.7,32.7,0,0,1,136.78,95a31.17,31.17,0,0,1-11.16,7.39,39,39,0,0,1-14.47,2.58,39.5,39.5,0,0,1-14.58-2.58A31.12,31.12,0,0,1,85.38,95a33.36,33.36,0,0,1-7.19-11.65A43.83,43.83,0,0,1,75.65,68,43.69,43.69,0,0,1,78.19,52.7a32.78,32.78,0,0,1,7.19-11.58A31.62,31.62,0,0,1,96.57,33.8,39.5,39.5,0,0,1,111.15,31.22Zm0,60.47q8.92,0,13.22-6t4.29-17.57q0-11.58-4.29-17.65T111.15,44.4q-9.06,0-13.43,6.1T93.37,68.12q0,11.5,4.35,17.54T111.15,91.69Z"/><path class="cls-1" d="M175.88,44.75a30.79,30.79,0,0,1,8-10.08A17,17,0,0,1,194.71,31a13.32,13.32,0,0,1,7.95,2.16l-1.11,12.91a3.36,3.36,0,0,1-1,1.77,2.81,2.81,0,0,1-1.78.53,20.7,20.7,0,0,1-3.11-.35,24.25,24.25,0,0,0-4-.35,14.37,14.37,0,0,0-5.09.84,13,13,0,0,0-4,2.4,16.62,16.62,0,0,0-3.14,3.8,37.85,37.85,0,0,0-2.55,5.1V103.9H159.63V32.33h10.11a5.56,5.56,0,0,1,3.7,1,5.53,5.53,0,0,1,1.39,3.38Z"/><path class="cls-1" d="M264.6,103.9V45.24H233.42V84a7.71,7.71,0,0,0,1.64,5.23,5.63,5.63,0,0,0,4.5,1.88,8,8,0,0,0,2.68-.38,14.33,14.33,0,0,0,1.89-.8c.53-.28,1-.55,1.43-.8a2.32,2.32,0,0,1,1.25-.39,2,2,0,0,1,1.26.39,5.79,5.79,0,0,1,1,1.15l5.17,8.37a26.27,26.27,0,0,1-8.65,4.74,32.22,32.22,0,0,1-10.12,1.6q-9.34,0-14.33-5.26t-5-14.54v-40h-7.32a3.33,3.33,0,0,1-2.37-.91,3.5,3.5,0,0,1-1-2.72V34.78L217,32.89l3.63-19.53A3.8,3.8,0,0,1,222,11.2a4,4,0,0,1,2.51-.77h8.93V33H264.6v-5.3a30.8,30.8,0,0,1,1.85-11,22.34,22.34,0,0,1,13.7-13.53A32.26,32.26,0,0,1,291.31,1.3a31,31,0,0,1,9.21,1.32l-.35,8.65a2.69,2.69,0,0,1-.56,1.57,3,3,0,0,1-1.29.91,6.9,6.9,0,0,1-1.85.42,22.31,22.31,0,0,1-2.23.1,20.71,20.71,0,0,0-5.47.66,9.25,9.25,0,0,0-4.08,2.3,10.45,10.45,0,0,0-2.55,4.33,21.87,21.87,0,0,0-.87,6.66V33h18.62V45.24H281.83V103.9Z"/><path class="cls-1" d="M339.51,31.22A39,39,0,0,1,354,33.8a31.68,31.68,0,0,1,11.16,7.32,32.28,32.28,0,0,1,7.15,11.58A43.93,43.93,0,0,1,374.8,68a44.07,44.07,0,0,1-2.51,15.34A32.84,32.84,0,0,1,365.14,95,31.17,31.17,0,0,1,354,102.36a39,39,0,0,1-14.47,2.58,39.5,39.5,0,0,1-14.58-2.58A31.12,31.12,0,0,1,313.74,95a33.21,33.21,0,0,1-7.19-11.65A43.61,43.61,0,0,1,304,68a43.46,43.46,0,0,1,2.54-15.28,32.64,32.64,0,0,1,7.19-11.58,31.62,31.62,0,0,1,11.19-7.32A39.5,39.5,0,0,1,339.51,31.22Zm0,60.47q8.92,0,13.22-6T357,68.12q0-11.58-4.29-17.65T339.51,44.4q-9.08,0-13.43,6.1t-4.36,17.62q0,11.5,4.36,17.54T339.51,91.69Z"/><path class="cls-1" d="M405.42.25V103.9H388.19V.25Z"/><path class="cls-1" d="M442.88,11.48a9.93,9.93,0,0,1-.91,4.19A11.45,11.45,0,0,1,436,21.42a10.83,10.83,0,0,1-4.32.87,10.39,10.39,0,0,1-4.22-.87A11.12,11.12,0,0,1,424,19.08a11.28,11.28,0,0,1-2.33-3.41,10.06,10.06,0,0,1-.88-4.19,10.63,10.63,0,0,1,.88-4.32,10.87,10.87,0,0,1,5.79-5.83,10.39,10.39,0,0,1,4.22-.87,10.83,10.83,0,0,1,4.32.87,11.4,11.4,0,0,1,3.52,2.34A11.27,11.27,0,0,1,442,7.16,10.49,10.49,0,0,1,442.88,11.48ZM440.5,32.33V103.9H423.21V32.33Z"/><path class="cls-1" d="M489.75,31.22a39,39,0,0,1,14.47,2.58,31.68,31.68,0,0,1,11.16,7.32,32.28,32.28,0,0,1,7.15,11.58A43.93,43.93,0,0,1,525,68a44.07,44.07,0,0,1-2.51,15.34A32.84,32.84,0,0,1,515.38,95a31.17,31.17,0,0,1-11.16,7.39,39,39,0,0,1-14.47,2.58,39.5,39.5,0,0,1-14.58-2.58A31.12,31.12,0,0,1,464,95a33.21,33.21,0,0,1-7.19-11.65A43.61,43.61,0,0,1,454.25,68a43.46,43.46,0,0,1,2.54-15.28A32.64,32.64,0,0,1,464,41.12a31.62,31.62,0,0,1,11.19-7.32A39.5,39.5,0,0,1,489.75,31.22Zm0,60.47q8.92,0,13.22-6t4.29-17.57q0-11.58-4.29-17.65T489.75,44.4q-9.08,0-13.43,6.1T472,68.12q0,11.5,4.36,17.54T489.75,91.69Z"/></g></g></svg>