<svg xmlns="http://www.w3.org/2000/svg" viewBox="0 0 492.32 95.79"><defs><style>.cls-1{fill:none;stroke:#fff;stroke-miterlimit:10;}</style></defs><g id="Capa_2" data-name="Capa 2"><g id="Capa_1-2" data-name="Capa 1"><path class="cls-1" d="M44.84,42a4.13,4.13,0,0,1-1.33,1.43,3.46,3.46,0,0,1-1.77.41,5.56,5.56,0,0,1-2.43-.63c-.87-.43-1.87-.9-3-1.43a28.52,28.52,0,0,0-3.89-1.42,18.77,18.77,0,0,0-5.16-.63,12,12,0,0,0-7.27,2,6.07,6.07,0,0,0-2.65,5.12,4.91,4.91,0,0,0,1.35,3.51,12.3,12.3,0,0,0,3.61,2.5,36.2,36.2,0,0,0,5.09,1.93c1.9.56,3.83,1.19,5.82,1.86A62.15,62.15,0,0,1,39,59a20,20,0,0,1,5.09,3.29,14.44,14.44,0,0,1,5,11.47,21.48,21.48,0,0,1-1.71,8.63,18.89,18.89,0,0,1-5,6.83,23.44,23.44,0,0,1-8.13,4.49,34.87,34.87,0,0,1-11.1,1.62,35.36,35.36,0,0,1-6.54-.61A38.54,38.54,0,0,1,10.47,93,33.91,33.91,0,0,1,5,90.48a26.38,26.38,0,0,1-4.4-3.16l3.61-5.95a5.13,5.13,0,0,1,1.64-1.64,4.58,4.58,0,0,1,2.4-.57A5.1,5.1,0,0,1,11,80c.87.55,1.87,1.14,3,1.77a25.28,25.28,0,0,0,4,1.77,17.61,17.61,0,0,0,5.85.83,15.26,15.26,0,0,0,4.78-.67A10,10,0,0,0,32,81.94a6.46,6.46,0,0,0,1.9-2.49,7.52,7.52,0,0,0,.6-3,5.26,5.26,0,0,0-1.36-3.73,12,12,0,0,0-3.6-2.52,35,35,0,0,0-5.12-1.93q-2.88-.85-5.89-1.87a53.1,53.1,0,0,1-5.88-2.37A20.11,20.11,0,0,1,7.5,60.63a15.5,15.5,0,0,1-3.6-5.12,17.8,17.8,0,0,1-1.36-7.33,18.74,18.74,0,0,1,1.58-7.59A17.7,17.7,0,0,1,8.77,34.3,22.93,22.93,0,0,1,16.42,30,31.69,31.69,0,0,1,27,28.39a32.28,32.28,0,0,1,12.2,2.21,27.46,27.46,0,0,1,9.17,5.82Z"/><path class="cls-1" d="M88.41,28.39a31.37,31.37,0,0,1,11.28,2,24.61,24.61,0,0,1,8.89,5.72,26.21,26.21,0,0,1,5.82,9.23,34.91,34.91,0,0,1,2.08,12.49,21.77,21.77,0,0,1-.16,2.94,4.65,4.65,0,0,1-.56,1.83,2.38,2.38,0,0,1-1.11.95,4.75,4.75,0,0,1-1.77.29H72.79q.69,10,5.37,14.67t12.4,4.67a21.43,21.43,0,0,0,6.54-.88,30.16,30.16,0,0,0,4.81-2c1.37-.72,2.57-1.37,3.6-2a6.07,6.07,0,0,1,3-.89,3.42,3.42,0,0,1,1.64.38,3.72,3.72,0,0,1,1.2,1.08l4.55,5.69a26.11,26.11,0,0,1-5.81,5.09A32.57,32.57,0,0,1,103.36,93a37.19,37.19,0,0,1-7.14,1.74,52.43,52.43,0,0,1-7,.5A34.84,34.84,0,0,1,76.58,93a28.11,28.11,0,0,1-10.11-6.64A31.08,31.08,0,0,1,59.7,75.46a42.19,42.19,0,0,1-2.47-15A36,36,0,0,1,59.38,48a30,30,0,0,1,6.17-10.18,28.9,28.9,0,0,1,9.8-6.86A32.23,32.23,0,0,1,88.41,28.39Zm.31,11.19q-6.82,0-10.68,3.85T73.11,54.37h29.33a19.39,19.39,0,0,0-.82-5.72,13.22,13.22,0,0,0-2.53-4.71,11.87,11.87,0,0,0-4.3-3.19A14.61,14.61,0,0,0,88.72,39.58Z"/><path class="cls-1" d="M129.19,94.27V29.4h9.17a4.91,4.91,0,0,1,3.35.88,5.16,5.16,0,0,1,1.27,3l.94,7.84a30.82,30.82,0,0,1,8.16-9.49,17.22,17.22,0,0,1,10.5-3.47,13.5,13.5,0,0,1,8,2.21l-2,11.7a2.44,2.44,0,0,1-.82,1.61,2.76,2.76,0,0,1-1.71.47,10.34,10.34,0,0,1-2.59-.44,17.62,17.62,0,0,0-4.36-.44A13.2,13.2,0,0,0,150.69,46a20.61,20.61,0,0,0-5.88,7.87v40.4Z"/><path class="cls-1" d="M213.35,94.27H199.19L173.39,29.4h13a4.87,4.87,0,0,1,2.88.82,4.17,4.17,0,0,1,1.61,2.09L203.36,67q1.08,3,1.8,5.94t1.3,5.82q.57-2.91,1.3-5.82A53.11,53.11,0,0,1,209.62,67l12.84-34.65A4.22,4.22,0,0,1,224,30.22a4.5,4.5,0,0,1,2.72-.82h12.33Z"/><path class="cls-1" d="M267.29,10.49a9,9,0,0,1-.82,3.8,10.42,10.42,0,0,1-5.38,5.21,9.74,9.74,0,0,1-3.92.79,9.33,9.33,0,0,1-3.82-.79,10.12,10.12,0,0,1-5.25-5.21,9.17,9.17,0,0,1-.79-3.8,10,10,0,0,1,2.91-7.08,10,10,0,0,1,3.13-2.12A9.33,9.33,0,0,1,257.17.5a9.74,9.74,0,0,1,3.92.79,10.34,10.34,0,0,1,3.19,2.12,10.15,10.15,0,0,1,2.19,3.16A9.59,9.59,0,0,1,267.29,10.49ZM265,29.4V94.27H249.33V29.4Z"/><path class="cls-1" d="M328.18,43.12a7.84,7.84,0,0,1-1.36,1.39,3.13,3.13,0,0,1-1.93.51,4.34,4.34,0,0,1-2.34-.73c-.76-.49-1.66-1-2.72-1.65A20.46,20.46,0,0,0,316.07,41a17.38,17.38,0,0,0-5.41-.73,16.45,16.45,0,0,0-7.2,1.49A13.6,13.6,0,0,0,298.3,46a19.12,19.12,0,0,0-3.06,6.73,35.93,35.93,0,0,0-1,9,35,35,0,0,0,1.11,9.23,19.85,19.85,0,0,0,3.19,6.8,13.87,13.87,0,0,0,5.06,4.17,15.33,15.33,0,0,0,6.71,1.42,16.64,16.64,0,0,0,6-.91,18.76,18.76,0,0,0,3.89-2c1.06-.73,2-1.41,2.75-2a4.17,4.17,0,0,1,2.63-.92,3.17,3.17,0,0,1,2.84,1.46l4.49,5.69a28.21,28.21,0,0,1-5.63,5.09A30.26,30.26,0,0,1,321,93a32.16,32.16,0,0,1-6.73,1.74,48.93,48.93,0,0,1-6.89.5A28.87,28.87,0,0,1,296.06,93a26.52,26.52,0,0,1-9.27-6.55,31.5,31.5,0,0,1-6.26-10.53,40.85,40.85,0,0,1-2.3-14.19,41.3,41.3,0,0,1,2-13.25,29.91,29.91,0,0,1,6-10.56,27.64,27.64,0,0,1,9.86-7,34,34,0,0,1,13.54-2.53,32.22,32.22,0,0,1,12.74,2.34,31.18,31.18,0,0,1,9.83,6.7Z"/><path class="cls-1" d="M361.88,10.49a8.89,8.89,0,0,1-.82,3.8,10.32,10.32,0,0,1-5.38,5.21,9.74,9.74,0,0,1-3.92.79,9.33,9.33,0,0,1-3.82-.79,10.12,10.12,0,0,1-5.25-5.21,9.17,9.17,0,0,1-.79-3.8,9.74,9.74,0,0,1,.79-3.92,9.92,9.92,0,0,1,5.25-5.28A9.33,9.33,0,0,1,351.76.5a9.74,9.74,0,0,1,3.92.79,10.39,10.39,0,0,1,3.2,2.12,10.3,10.3,0,0,1,2.18,3.16A9.43,9.43,0,0,1,361.88,10.49ZM359.54,29.4V94.27H343.92V29.4Z"/><path class="cls-1" d="M404.88,28.39a35.51,35.51,0,0,1,13.18,2.34,28.51,28.51,0,0,1,10.09,6.63,29.51,29.51,0,0,1,6.45,10.5,40.12,40.12,0,0,1,2.27,13.85,40.3,40.3,0,0,1-2.27,13.91,30.13,30.13,0,0,1-6.45,10.56,28,28,0,0,1-10.09,6.7,38.4,38.4,0,0,1-26.4,0,28.34,28.34,0,0,1-10.15-6.7A30.26,30.26,0,0,1,375,75.62a39.6,39.6,0,0,1-2.31-13.91A39.41,39.41,0,0,1,375,47.86a29.63,29.63,0,0,1,6.51-10.5,28.84,28.84,0,0,1,10.15-6.63A35.8,35.8,0,0,1,404.88,28.39Zm0,54.82q8.08,0,12-5.44t3.89-15.94q0-10.48-3.89-16t-12-5.5q-8.22,0-12.14,5.53t-3.92,16q0,10.44,3.92,15.91T404.88,83.21Z"/><path class="cls-1" d="M487.59,42a4.33,4.33,0,0,1-1.33,1.43,3.51,3.51,0,0,1-1.77.41,5.63,5.63,0,0,1-2.44-.63c-.86-.43-1.86-.9-3-1.43a28.52,28.52,0,0,0-3.89-1.42,18.65,18.65,0,0,0-5.15-.63,12,12,0,0,0-7.27,2,6.08,6.08,0,0,0-2.66,5.12,4.88,4.88,0,0,0,1.36,3.51,12.38,12.38,0,0,0,3.6,2.5,36.68,36.68,0,0,0,5.09,1.93C472,55.35,474,56,476,56.65s3.92,1.44,5.82,2.31a20.12,20.12,0,0,1,5.09,3.29,14.48,14.48,0,0,1,5,11.47,21.48,21.48,0,0,1-1.71,8.63,18.78,18.78,0,0,1-5,6.83A23.26,23.26,0,0,1,477,93.67a34.85,34.85,0,0,1-11.09,1.62,35.39,35.39,0,0,1-6.55-.61A38.13,38.13,0,0,1,453.22,93a34.43,34.43,0,0,1-5.44-2.53,26.29,26.29,0,0,1-4.39-3.16l3.6-5.95a5.13,5.13,0,0,1,1.64-1.64,4.65,4.65,0,0,1,2.41-.57,5.13,5.13,0,0,1,2.75.82q1.29.83,3,1.77a25.42,25.42,0,0,0,4,1.77,17.57,17.57,0,0,0,5.85.83,15.24,15.24,0,0,0,4.77-.67,10,10,0,0,0,3.29-1.74,6.54,6.54,0,0,0,1.89-2.49,7.35,7.35,0,0,0,.61-3,5.3,5.3,0,0,0-1.36-3.73,12,12,0,0,0-3.61-2.52,34.15,34.15,0,0,0-5.12-1.93q-2.88-.85-5.88-1.87a53.1,53.1,0,0,1-5.88-2.37,19.77,19.77,0,0,1-5.12-3.45,15.53,15.53,0,0,1-3.61-5.12,18,18,0,0,1-1.36-7.33,18.74,18.74,0,0,1,1.58-7.59,17.94,17.94,0,0,1,4.65-6.29,23.13,23.13,0,0,1,7.65-4.3,31.77,31.77,0,0,1,10.59-1.61A32.37,32.37,0,0,1,482,30.6a27.56,27.56,0,0,1,9.17,5.82Z"/></g></g></svg>