<svg id="m" xmlns="http://www.w3.org/2000/svg" viewBox="0 0 635.97 375.22"><defs><style>.cls-1{fill:none;stroke:#000;stroke-miterlimit:10;}</style></defs><path class="cls-1" d="M365.26,569.06h193s-21.44-21.44-23.71-53.6l-3.36-186.73c.31-9.54,1.3-20.91,3.5-27.56,7.11-25,19.53-37.69,45.79-40.51,28-3.62,45.77,25.68,47.2,55.89.7,36.7,2.29,155.85,2.73,189.4-.42,6.35-1,13.48-3.51,19.77-2.14,5.57-10.6,20.86-34.22,40.69-11.65,9.21,127.81,1.81,177.52,3.09,34,.64,24.08-3.92,5.87-22.87a72,72,0,0,1-16.78-27.3c-4.07-11-2.4-185.4-2.21-223.92-.13-9.68,7.47-20.94,22.56-30.85,12.49-8.19,28.23-7,40.67,1.26a74.55,74.55,0,0,1,7.23,6,37.12,37.12,0,0,1,9,11.79,66.32,66.32,0,0,1,5.72,24.47c2.18,46.2,4.32,180-.63,206.7-2.33,14.08-9.29,30.58-36.14,51.87-4.41,5,92.94,4.63,149.65,3.45,2.62.09,25.75.2,36.64-.56,9.37-.65,15.88,1.31-3.89-13.09-17.8-14.7-18.69-26.3-18.67-33,.94-35-7.34-179.42-8.09-211.28,2.91-74.42-127.54-165.7-209.92-64.65-15.91,18.11-21.36,14.35-36.49-6.46-41-52.88-133.62-37.22-163.51-9.8-3.51,3.21-7.73,5.6-12.47,5.93-6.41.44-10.92-1.43-10.75-3.8-1.27-2,2.13-7,6.18-12.89,12.32-17.91,18.74-27.47,6.44-22.06C464.64,235.07,420.5,222,375.38,225c-4.74.31-6.63,5.81-2.62,8.34,7.62,4.77,24.66,12.87,24.66,24.88V515.46C397.42,536.9,376,569.06,365.26,569.06Z" transform="translate(-365.26 -196.39)"/></svg>