<svg id="w" xmlns="http://www.w3.org/2000/svg" viewBox="0 0 635.97 375.22"><defs><style>.cls-1{fill:none;stroke:#000;stroke-miterlimit:10;}</style></defs><path class="cls-1" d="M939.22,206.15H746.28s21.43,21.44,23.71,53.59l3.35,186.74c-.31,9.53-1.29,20.91-3.49,27.56-7.12,25-19.53,37.68-45.79,40.5-28,3.63-45.77-25.67-47.2-55.88-.7-36.7-2.29-155.85-2.74-189.4.43-6.35,1-13.49,3.52-19.77,2.14-5.57,10.6-20.86,34.21-40.69,11.66-9.22-127.8-1.82-177.52-3.09-34-.64-24.07,3.92-5.86,22.87a71.86,71.86,0,0,1,16.77,27.3c4.07,11,2.41,185.4,2.21,223.91.14,9.69-7.47,20.95-22.55,30.85-12.49,8.2-28.24,7-40.67-1.25a76.07,76.07,0,0,1-7.23-6,37.3,37.3,0,0,1-9-11.8,66.47,66.47,0,0,1-5.72-24.46c-2.17-46.2-4.32-180,.64-206.7,2.32-14.08,9.28-30.59,36.13-51.87,4.42-5-92.93-4.63-149.65-3.45-2.62-.09-25.74-.21-36.64.55-9.37.66-15.88-1.3,3.89,13.1,17.81,14.7,18.69,26.29,18.67,33-.93,35,7.35,179.43,8.1,211.28C340.5,537.49,471,628.78,553.33,527.73c15.9-18.11,21.35-14.35,36.48,6.46,41.05,52.87,133.62,37.21,163.52,9.8,3.5-3.22,7.72-5.6,12.46-5.93,6.41-.44,10.92,1.42,10.76,3.8,1.26,1.95-2.14,7-6.19,12.89-12.32,17.9-18.74,27.46-6.44,22.06,75.93-36.68,120.06-23.65,165.19-26.58,4.73-.31,6.63-5.82,2.61-8.34C924.1,537.11,907.06,529,907.06,517V259.74C907.06,238.31,928.5,206.15,939.22,206.15Z" transform="translate(-303.25 -203.6)"/></svg>