<svg id="Capa_1" data-name="Capa 1" xmlns="http://www.w3.org/2000/svg" viewBox="0 0 1805.88 947.35"><defs><style>.cls-1{fill:#f39;}.cls-1,.cls-3{stroke:#f39;stroke-miterlimit:10;}.cls-2{fill:#fff;}.cls-3{fill:none;}</style></defs><path class="cls-1" d="M588.14,717.12c-25.9,23.45-57.92,40.12-92.14,46.5-40.52,7.55-82.92,1.5-122-8.45C310,738.85,245.48,704.74,208.6,647c-31.41-49.19-35-109.35-14.24-162.68,19.53-50.18,53.45-91.88,94.51-126.15,41.56-34.68,90.1-62.3,142.31-78.33,44.94-13.8,93.27-21.5,139.3-10.83,26.75,6.2,52.48,17.51,69.9,40.31,16.56,21.69,21,49.26,16.76,75.76-7.39,46.66-34.94,84.41-72.55,109.59-37.18,24.89-82.85,37.89-128.59,26.84-18.37-4.44-37.12-15.07-48-30.47-9.93-14-12.4-33.24-7.75-49.6,10-35.09,44.21-53.72,76-67.26,2.43,4.54,3.65,6.81,6.11,11.35-22.49,6.76-37.63,24.76-43.29,47.15-3.61,14.29-1.23,30.26,8,42,10.23,13,25.78,22.21,42,25.66A107.78,107.78,0,0,0,572,483.75a111.89,111.89,0,0,0,47-73.34c4.53-27,0-55.15-16.25-77.73-17.08-23.67-42.35-36.31-69.51-43.14C478.54,275.8,422.93,293,376,321.28c-54.89,33.09-96.66,82.8-117.75,143.24C238.59,520.73,241.28,579,270.42,631.87,301.21,687.69,357.41,722.6,418,737c27.91,6.61,57.94,10.19,86.93,4.35,26-5.23,49.55-18.77,69.33-36.18C579.78,710,582.56,712.34,588.14,717.12Z" transform="translate(-57.06 -65.74)"/><path class="cls-1" d="M913,756.16c-27.77,32-65.28,65.66-110.62,63.07-9.88-.56-21.81-3-28.2-10.46-7.65-8.94-7.12-24-6.36-35.69C752,785.6,735,799.2,715.33,805.11c-15.61,4.68-31.32,4.82-47,3.26-21.06-2.08-42.74-11.09-56.69-28.15-12.81-15.66-17.1-37.09-13.4-56.83,1-6.47,1.55-9.71,2.58-16.18-9.68,7.45-19,15.36-28.43,23.12-5.64-4.52-8.45-6.79-14-11.35,30.35-25.79,62.66-50.09,98.55-66.81,24.83-11.57,53.52-23.59,80.81-20,16.38,2.13,30.56,7.82,45.53,16q20.58-7,41-14.26l-8.07,129.33q-1.28,20.53.88,24.87c1.43,2.89,5.93,4.79,12.8,4.95,9.75.23,20.08-6.22,28.16-11.57,15.21-10.07,28.26-22.5,41-35.55C904.56,750,907.37,752.08,913,756.16Zm-143.73-12,6.36-76.34c-11-11.63-26.91-17.95-42.52-19.67-18.34-2-37.39,4.53-51.88,15.52-15.48,11.74-26.88,30.08-29.22,49.59-1.79,15,0,32.42,10.54,44.27,10.77,12.1,27,18.93,43,20.29a61.44,61.44,0,0,0,42.92-13.11C756,758.68,764.85,753,769.27,744.14Z" transform="translate(-57.06 -65.74)"/><path class="cls-1" d="M1237.71,739.82c-24.54,35.63-59.7,73.58-104.64,78.33-8.4.89-21.17-1.11-27.47-7.12-10.07-9.61-10.43-26.88-11.63-40.35l-5-87.13c0-9.59-5.32-20.12-16.26-19.34a32.84,32.84,0,0,0-15.11,5.3,89.35,89.35,0,0,0-16.7,14.21c-9.06,9.54-17.23,20.15-25.32,30.51-5.82,7.44-12.36,14.91-16.67,23.41l1.16,68.59q-24.24,12.6-48.74,24.71l.47-128.05c-12,22.85-27.16,41.93-45.12,60.38-5.83-3.95-8.73-5.93-14.52-9.92,25.41-27.89,50.77-59.36,60.73-96.57q22.26-8.87,44.33-18.22.6,35.45,1.21,70.88c16.08-19.52,32.51-41.63,52.78-55.68,12-8.34,25.22-14.73,40.56-15.8,10.79-.76,22.76,1.83,30.2,9.43,12.62,12.9,13.17,37.94,14.86,55.43q2,25.45,4,50.91c.9,9.2,1.3,19.27,4.38,27.95,1.73,4.9,6.16,7.31,12.44,6.62,27-2.94,49.36-36.56,64.27-56.58C1228.19,735,1231.36,736.6,1237.71,739.82Z" transform="translate(-57.06 -65.74)"/><path class="cls-1" d="M1248,492.09c-2.12-13.6.81-27.74,9.8-38.39,9.69-11.49,22.49-16.34,36.29-19.28,34.78-7.41,71.33,7.88,99.55,29.36,36,27.41,57.85,67.22,67.94,109.65,11.47,48.2,9.06,100.34-16.8,144.23-22.5,38.21-57.2,69.37-102,75.7-20.08,2.83-42.49,1.83-60.7-8.37-14.06-7.89-25.14-22.06-27.56-38.43l-1.7-13.23q-1.35-10.58-.86-14.1-9.48,13.9-19.09,27.71c-6.69-2.74-10-4.12-16.66-6.9,35.81-55.34,83.16-127.08,153.14-140.65,24.77-4.8,50.29-.58,70,15.9a164.66,164.66,0,0,0-4.28-31.84c-8.51-34.17-28-61-55.51-83.21-24.93-20.19-58-32.07-89.07-26.19C1274.79,477,1261.69,483,1248,492.09ZM1363.6,761.6c24.66-4.68,46.66-20.22,59.88-41,13-20.51,20.61-43.57,15.33-68.48-2.83-13.4-11.09-25.37-23.2-31.87-13.17-7.06-29.75-7.23-44.17-4.55-23.35,4.35-43.78,18.47-56.85,37.48-12.45,18.09-22,40-18.18,63,2.39,14.41,9.49,29.11,22.14,37.3C1331.64,761.88,1348.44,764.48,1363.6,761.6ZM1528,685.42c-22.83,52-68.61,87.83-122.55,103.39-2.4-3.11-3.6-4.66-6-7.78,48.86-18.41,88.57-53.69,111.46-100.75C1517.72,682.36,1521.14,683.39,1528,685.42Z" transform="translate(-57.06 -65.74)"/><path class="cls-1" d="M1772.3,608.45c-9,26.52-21.26,51.48-41.21,71.45-22.07,22.09-52.78,35.48-81.46,43.94-21.63,6.38-45.51,9.2-67.57-.1-18.8-7.92-31.75-25.92-36.53-45.23a116.83,116.83,0,0,1-3.12-19.28c-6.3,11.21-12.65,22.4-18.42,33.89-7-1.85-10.51-2.79-17.48-4.69,20.2-38.13,39.34-80.9,67.08-113.16,15.78-18.36,33.88-32.11,56.83-40.31,10.09-3.6,21.79-4.44,32.27-1,9.63,3.14,16.2,9.33,19.24,18.41,16.38,48.88-41.81,98.34-74,125.86,18.51,18.61,46.23,14.59,68.12,7.83,16.94-5.23,31.32-16.45,44.45-28.47,15.4-14.1,27.14-33.13,35-52.61C1762.22,606.37,1765.57,607.07,1772.3,608.45Zm-177.31,58c23.88-18.91,66.88-52.45,55.16-88.62-2.35-7.24-6.73-12.37-13.06-15.41s-13.68-3.08-21.8-.69c-14.38,4.22-26.22,15.46-33,28.64-7.17,14-8,31-3.87,45.93,2.42,8.76,5.81,16,10,21.32C1592.53,662.79,1594.78,665.74,1595,666.47Z" transform="translate(-57.06 -65.74)"/><path class="cls-2" d="M894.66,285.37c0-8.08-4.75-15.34-13.26-21.9-7.22-5.57-19.12-10.36-28.2-9.78-10.57.68-21.55,2.29-30.15,10q3.16,1.67,13.79,8t18.62,8.6a55.42,55.42,0,0,0,15.08,2.26A65.59,65.59,0,0,0,882,281q0,1.22-3.92,2.34a29,29,0,0,1-8.14,1.13,50.45,50.45,0,0,1-14.18-2.26q-7.68-2.26-18.92-9.13t-14.7-8.67a38.28,38.28,0,0,0-5.88,6.48l-.3-.6c0-1,1.61-3.17,4.83-6.49a14.15,14.15,0,0,0-2.72-1.51l-1.81.61c-1.3,0-2-.76-2-2.27a28.28,28.28,0,0,0-5.27-2.11c-.21.81.37,1.79,1.73,2.94s2,2.09,2,2.79l-.61,1.51c-1.61-2.21-3.06-3.47-4.37-3.77q-5-1.35-4.22-5l-2.56-.6a1.84,1.84,0,0,1-1.81.9c-1.21,0-1.81-.5-1.81-1.51l-3.17-.3a1.81,1.81,0,0,1-1.81.91,1.62,1.62,0,0,1-1.81-1.21H789a14.87,14.87,0,0,0-3.61.3,30.69,30.69,0,0,0-5.88,18.11v4.68c0,.9.6,3.27,1.81,7.09a32.7,32.7,0,0,0,13.11,17.2l1.06.76-.91.3q-1.2,0-6.71-4.68t-8.67-13.58l-1.5-6.79a29.67,29.67,0,0,1-.3-5.28,37.79,37.79,0,0,1,4.52-17.51A98.45,98.45,0,0,0,736.58,275c-10.78,8.33-18.21,20.79-18.32,34.55-.08,11,4,22,13,28.75,10.17,7.6,23.4,10,35.92,9.88h3.77q5.58,0,15.69-3.77A70.9,70.9,0,0,0,804,334.57l.61.61A99.06,99.06,0,0,1,786.32,346a40.64,40.64,0,0,1-15.84,3.77h-3.32c-13,.17-26.6-2.48-37-10.42-9.4-7.14-13.73-18.76-13.51-30.37.28-14.09,8.08-27.19,19.24-35.5,13.47-10,39-14.15,46.86-19.34,5.27-3.48,15.19-16,24.22-20.25a78.93,78.93,0,0,1,33.27-7.55c14.66-.2,30.3,2.46,44.59,9.21,11.78,5.57,23.05,14,29.65,24.76,5.5,8.92,10.26,19.39,10.41,30.35.12,8.51-4.23,19.74-10.71,25.66a39.88,39.88,0,0,1,17.66,14.57,38.46,38.46,0,0,1,6.33,21.67,28,28,0,0,1-6.34,17.81q-6.33,8-17.5,12.08a29.16,29.16,0,0,1,2.11,11.18c.19,11.3-5.42,21.15-11.77,29.29-7.77,10-20.38,17.24-32.74,22A26.31,26.31,0,0,1,876,458.59c.2,9.36-7.39,20.39-14.79,25.29-9.94,6.59-22.72,11.08-34.7,10.64-14.2-.51-27.88-3.29-40.07-11.92-10.22-7.24-16.66-18.71-16.52-31.39a10,10,0,0,1-3,.31c-12.05.06-24.18-3.65-33.29-11.77S720.32,420,720.38,408.21A47.75,47.75,0,0,1,734,375.62a66.56,66.56,0,0,1,35.24-18.72,55.12,55.12,0,0,1,16.45-1.2c9.59,1,20.2,2.4,28.74,8,6.58,4.31,9.88,7,9.88,8.14l-.6.61-1.21-.91c-10.16-8.94-23.5-13.28-36.81-14a67.85,67.85,0,0,0-16.45,1.36c-12.12,2.32-23.69,8-32,17.35a48.54,48.54,0,0,0-11.92,32.29,40.58,40.58,0,0,0,12.22,29.58,42.86,42.86,0,0,0,29.88,11.62h2.41A25.1,25.1,0,0,1,776,434.27a65.63,65.63,0,0,1-11.73-10.37q-4.23-5-4.23-5.88l.3-.91.61.76a62.26,62.26,0,0,0,16.1,15.5q5.4-5.85,12.45-5.85,5.85,0,5.85,5.14,0,4.36-4.22,8.75a104.38,104.38,0,0,0,14.79,4.52q3.62-8.15,13-13.05a43.35,43.35,0,0,1,37.88-1.05,32.94,32.94,0,0,1,13.43,10.78c12.34-4,25.15-10.71,32.82-20.37,6.57-8.28,11.93-18.43,11.69-30a36,36,0,0,0-1.51-9.35,38.41,38.41,0,0,1-13.58,2.26,52.25,52.25,0,0,1-18-3.17l-.9-.3a59.91,59.91,0,0,1-17.35-9.5v29c0,2-.3,3-.91,3s-.9-.61-.9-1.82V370.94a27.24,27.24,0,0,1-2.87-2.94,33.42,33.42,0,0,0-2.26-2.64,63.57,63.57,0,0,0-7.1,5.28l-.6-.46a36.24,36.24,0,0,1,6.79-5.73A64.83,64.83,0,0,1,849,353.89q-2.49-5.13-2.49-5.89l.6-.9.6,1.2a64.6,64.6,0,0,0,9.06,15.39,25.34,25.34,0,0,1,4.29-2.11,8.94,8.94,0,0,1-.67-3,3.33,3.33,0,0,1,1.21-2.86v-1.51c-2.22-.52-3.32-1.8-3.32-3.85,0-2.26,1.15-3.39,3.47-3.39v-1.51a3.2,3.2,0,0,1-1.36-2.87,12.16,12.16,0,0,1,.6-3.24,15.77,15.77,0,0,0,.61-4.46V330.5q-3.78-.6-5-1.59c-.81-.65-1-1-.46-1l5.44,1.06V313.6c0-1.61.3-2.42.9-2.42s.91.81.91,2.42v15.69q3.92,1.21,13.88,1.21A49.57,49.57,0,0,0,894.89,327,50.88,50.88,0,0,0,911.26,317a45.52,45.52,0,0,0-17.8-3.29q-8.61,0-22.34,5.13l-.6-.3c0-.61,2.77-1.86,8.3-3.78a45.63,45.63,0,0,1,14.64-2.86,48.69,48.69,0,0,1,19.16,3.77c6.94-7.33,10.27-15.61,10.41-24.41.26-16.09-9.36-31.24-21.12-41.49-16.15-14.06-38.93-18.12-59.61-18.3a96,96,0,0,0-32.22,6C802,240.53,792,246.72,786.62,254h4.07c.21-.8.91-1.2,2.12-1.2a1.81,1.81,0,0,1,1.81,1.51l3.17.45a1.77,1.77,0,0,1,1.81-1.06c1.21,0,1.81.56,1.81,1.66l2.56.6c.51-1.1,1.56-1.65,3.17-1.65a10.77,10.77,0,0,1,3.47.67,10.64,10.64,0,0,0,3.47.68,14.46,14.46,0,0,0,2.87-.45l.6,1.06c0,.6-.6.9-1.81.9l-3.32-.15a3.21,3.21,0,0,0-2.56.76,27.83,27.83,0,0,1,5.13,2.11,2.62,2.62,0,0,1,1.66-.61c1.21,0,1.81.76,1.81,2.27l3.32,1.51c8.91-7.65,20.74-10.9,32.14-11,9.41-.09,21.47,5.1,28.67,10.35C889,267,896.46,277,896.32,285.66c0,1.5-.28,2.29-.83,2.29S894.66,287.09,894.66,285.37Zm1.66.17q0,10-9.56,16.85a37,37,0,0,1-22.21,6.83c-15.09-.09-29-5.13-42.92-10.56-19,8.66-32,25.13-35,45.9l-.31,1.66a85,85,0,0,0-.6,9.48v1.81c.34,13.54,4.16,28.5,14.11,38.21,9.64,9.41,23.23,13.79,36.59,13.7a51.28,51.28,0,0,0,25.35-7l1.81-1.21q13.27-7.89,17.35-19.57l.6-.91.31,1.2c-2.16,10.72-10,19.35-18.51,25.58-10.8,7.89-24.36,11.7-37.55,11.85A63.36,63.36,0,0,1,785.13,405c-11.63-9.77-16.25-25.82-16.31-40.46a33.43,33.43,0,0,1,.3-5.58v-2a55.93,55.93,0,0,1,1.22-7.08l.45-1.51a67.44,67.44,0,0,1,18-30.14,96.58,96.58,0,0,1,30.91-20.5c-12.2-5.33-24.65-11.28-38.17-12.07h-2.12c-9.06-.41-20.84,2.07-28.48,7.17-7.18,4.8-10.91,10.94-10.91,18.48q0,8.61,5.86,13t14.72,4.38q4.65,0,12-4.83l.6.6c0,.71-1.66,1.91-5,3.62a23.37,23.37,0,0,1-10.86,2.57q-6.79,0-12.9-5.28a17.45,17.45,0,0,1-6.12-13.89c0-7.34,3.53-13.92,10.41-19.76,8.29-7,18.62-10,28.83-13l1.81-.3a89.6,89.6,0,0,1,18-1.81,75.18,75.18,0,0,1,16.23,2q8.82,2,24.82,9.2t23.54,9a62.07,62.07,0,0,0,13.88,1.74q9.19,0,14-3.62a11.49,11.49,0,0,0,4.83-9.66c0-1.51.28-2.26.83-2.26S896.32,283.83,896.32,285.54Zm-108,156.17q-6-3.33-11-6.49a25.37,25.37,0,0,0-5.58,14.18A34,34,0,0,0,788.28,441.71Zm-16.6,9.35v1.51c-.09,12,6.69,22.39,16.37,28.9,11.28,7.58,25,11.23,38.56,11.24a62,62,0,0,0,33.72-10.11c7.06-4.7,14.16-15.24,14-24.14a25.84,25.84,0,0,0-3.77-12.68c-12.22,3.64-22.68,5.72-35.16,6.19a98.28,98.28,0,0,1-28.22-3.32,14.62,14.62,0,0,0-.9,5.41q0,7.19,5,11.3a18.34,18.34,0,0,0,12.07,4.11,15.6,15.6,0,0,0,8.07-1.91c2.16-1.28,3.25-2.84,3.25-4.68s-.91-2.91-2.72-2.91a4.13,4.13,0,0,1,.6,2.46c0,.87-.65,1.31-2,1.31-1.81,0-2.71-.72-2.71-2.17,0-2.28,1.3-3.41,3.92-3.41,3,0,4.53,1.52,4.53,4.58,0,2.23-1.19,4.2-3.55,5.88s-5.51,2.51-9.43,2.51a20.17,20.17,0,0,1-13.21-4.67,15.27,15.27,0,0,1-5.65-12.38,19.09,19.09,0,0,1,.9-6,74.6,74.6,0,0,1-15.39-5.59Q783.15,449,771.68,451.06Zm17.51-10.71q4.37-3.78,4.37-7.39t-5-3.63q-5.43,0-10.41,4.83A73.06,73.06,0,0,0,789.19,440.35ZM823.29,326a16.59,16.59,0,0,0,1.8,7.32q1.8,3.7,9.52,10.11t9.82,11.17a23.81,23.81,0,0,1,2.1,9.73q0,11-9.44,19.09T820,391.46a16.47,16.47,0,0,1-10.19-3.24c-2.86-2.17-4.3-4.71-4.3-7.62q0-8.91,9-8.91a6,6,0,0,1,4.95,2.39,8.64,8.64,0,0,1,1.91,5.53q0,4.33-5.24,6.42l-1,.6c0,.68.76,1.3,2.3,1.87a12.54,12.54,0,0,0,4.28.85q4.59,0,9.57-4.84t5-10a21.3,21.3,0,0,0-2.06-9q-2-4.47-10.09-10.81T814,344.07a20.32,20.32,0,0,1-2-8.85q0-10,8.82-17.69t11.4-7.7l1.51.6-1.36,1.05Q823.29,317.23,823.29,326Zm45.42,117.29a34.88,34.88,0,0,0-13.43-10.11,39.62,39.62,0,0,0-35.09.9q-8.82,4.57-12.44,12.2A92.88,92.88,0,0,0,831,448.8,163.53,163.53,0,0,0,868.71,443.26ZM861.62,369v-2.72a11.9,11.9,0,0,0-.31-3.47c-2.21.9-3.47,1.56-3.77,2l1.51,1.81Zm51.9,11.31a34.52,34.52,0,0,0,19.77-30.88,35.06,35.06,0,0,0-20.37-31.74,53,53,0,0,1-17.28,10.79A51.37,51.37,0,0,1,877,332.31,60.48,60.48,0,0,1,863.43,331V335a15.35,15.35,0,0,0,.6,4.4,12.05,12.05,0,0,1,.6,3.21,3.31,3.31,0,0,1-1.2,2.84V347q3,0,3,3.39a3.49,3.49,0,0,1-3,3.85v1.51a3.35,3.35,0,0,1,1.2,2.86,4.28,4.28,0,0,1-.3,1.82,37.81,37.81,0,0,1,13.88-2.27,39.78,39.78,0,0,1,21.58,6A34,34,0,0,1,913.52,380.29Zm-.9.62a33.54,33.54,0,0,0-13.43-15.44,39.59,39.59,0,0,0-21.28-5.7,48.79,48.79,0,0,0-13.88,2.1,13.85,13.85,0,0,0-.6,4.35v4.35a60.42,60.42,0,0,0,37.12,12.89A30.83,30.83,0,0,0,912.62,380.91Z" transform="translate(-57.06 -65.74)"/><path class="cls-2" d="M976.9,401.72q-4.5,6.48-15.46,14.3c-5.89,4.19-10.31,8.53-13.21,13l-.75,1c-.51,0-.76-.3-.76-.91q0-1.19,3.25-4.83c2.16-2.42,3.24-4.19,3.24-5.28l-1.51-2.26c-6.34-6.44-9.67-15.11-9.5-25.5.27-17.23,11.56-29.28,23.78-40.38a95.43,95.43,0,0,0,14.39-14.55l.61.61q0,1-5.89,8.3c9.66,7.44,16.26,11.11,19.47,11.31,1.17.08,1.81.47,1.81,1.06q-8.16,4.36-8.15,7.22v33.26a13.05,13.05,0,0,0,3.62,9.55c2.41,2.46,4.48,3.69,6.19,3.69q1.5,0,6.18-3.32c.51,0,.76.3.76.9s-2.24,2.29-6.72,5.06-9.78,7.52-15.92,14.26l-.3-.6q0-1.21,5-7.4c0-.5-.77-1.41-2.3-2.71Q976.9,410.63,976.9,401.72Zm-.15-3.17v-35c0-1.4-1.56-3.24-4.69-5.5s-5.24-3.4-6.32-3.4-3.3,2.94-6.27,8.83S955,376.52,955,385q0,10.26,3.6,16.52t8.39,6.27Q972,407.76,976.75,398.55Z" transform="translate(-57.06 -65.74)"/><path class="cls-2" d="M1046,407.45c.24.25.36.37.61.61a157.12,157.12,0,0,0-15.95,13.88q-6.39,6.49-7.14,6.49l-.61-.6q3.48-4.05,3.48-5.29,0-2.57-4.43-7.24c-2.94-3.12-7.27-4.68-13-4.68q-1.05,0-5.4,3c-.81,0-1.21-.35-1.21-1.05q0-.76,8.18-5.74t13-5q3.78,0,15.6,9.06c.81,0,2-.58,3.47-1.74S1045.31,407.45,1046,407.45Zm-30.78-61.56q0-12.37,2.2-18t10.41-11.62q8.21-6,9.12-6l.6,1-.3.67q-5.28,4.8-7.24,9t-2,15v9.92h8.9a1.7,1.7,0,0,1,2,1.89c0,1.25-.66,1.88-2,1.88h-8.9v25.11c.55,14-9.48,25.65-20.51,32.83-.81.51-1.67,1-2.58,1.52l-.45-.76.15-1.06c.4-.2,1.51-.85,3.32-2s3.47-3.28,5-6.51,2.26-9.38,2.26-18.46V349.66h-6.79c-1.21,0-1.81-.63-1.81-1.88s.6-1.89,1.81-1.89Z" transform="translate(-57.06 -65.74)"/><path class="cls-2" d="M1089.32,407.45l.6.61a158.22,158.22,0,0,0-16,13.88q-6.37,6.49-7.14,6.49l-.6-.6q3.46-4.05,3.47-5.29,0-2.57-4.42-7.24t-13-4.68q-1.05,0-5.39,3c-.81,0-1.21-.35-1.21-1.05q0-.76,8.18-5.74t13-5q3.78,0,15.61,9.06c.8,0,2-.58,3.47-1.74S1088.61,407.45,1089.32,407.45Zm-30.78-61.56q0-12.37,2.2-18t10.41-11.62q8.2-6,9.12-6l.6,1-.3.67a30.06,30.06,0,0,0-7.25,9q-2,4.21-2,15v9.92h8.91a1.7,1.7,0,0,1,2,1.89c0,1.25-.66,1.88-2,1.88h-8.91v25.11c.56,14-9.48,25.65-20.5,32.83-.81.51-1.67,1-2.59,1.51l-.45-.75.15-1.06c.4-.2,1.51-.85,3.32-2s3.47-3.28,5-6.51,2.27-9.38,2.27-18.46V349.66h-6.79a1.64,1.64,0,0,1-1.82-1.88c0-1.26.61-1.89,1.82-1.89Z" transform="translate(-57.06 -65.74)"/><path class="cls-2" d="M1124.78,344.23l1.53,1.06c11.68,6.32,17.79,19.21,17.48,32.14a35.34,35.34,0,0,1-4.09,15q-4.1,8.07-14.4,18.18a193.64,193.64,0,0,0-15.91,17.21c-.24-.37-.36-.55-.61-.91,2.32-3.5,3.48-5.62,3.48-6.34l-1.8-1.2a33.12,33.12,0,0,1-16.61-29.28,46.47,46.47,0,0,1,4.63-19.61q4.63-9.81,15.56-19.39t15-15.92l.61.9Q1129.61,337.42,1124.78,344.23Zm-2.11,62.92c3.17.05,5.73-2.23,7.54-7a48.64,48.64,0,0,0,2.72-17.23,31.5,31.5,0,0,0-6.41-19.48c-4.28-5.67-8.3-8.43-11.85-8.51-2.37-.05-4.5,2.69-6.26,8.35a58.28,58.28,0,0,0-2.64,17.38q0,11.74,5,19.11C1114.07,404.69,1118.11,407.08,1122.67,407.15Z" transform="translate(-57.06 -65.74)"/><path class="cls-2" d="M1184.38,344.23l1.54,1.06c11.67,6.32,17.79,19.21,17.48,32.14a35.36,35.36,0,0,1-4.1,15q-4.08,8.07-14.4,18.18A193.64,193.64,0,0,0,1169,427.83l-.6-.91c2.31-3.5,3.47-5.62,3.47-6.34l-1.8-1.2a33.16,33.16,0,0,1-16.61-29.28,46.34,46.34,0,0,1,4.64-19.61q4.64-9.81,15.56-19.39t15-15.92l.6.9Q1189.21,337.42,1184.38,344.23Zm-2.11,62.92c3.17.05,5.73-2.23,7.55-7a48.65,48.65,0,0,0,2.71-17.23,31.55,31.55,0,0,0-6.41-19.49c-4.28-5.66-8.3-8.42-11.85-8.5-2.36-.05-4.5,2.69-6.26,8.35a58.28,58.28,0,0,0-2.64,17.38q0,11.74,5,19.11C1173.67,404.69,1177.72,407.08,1182.27,407.15Z" transform="translate(-57.06 -65.74)"/><ellipse class="cls-3" cx="902.94" cy="473.67" rx="902.44" ry="473.17"/></svg>